# xmcd CD database file
#
# Track frame offsets:
#	150
#	22942
#	44185
#	65340
#	85105
#	106075
#	124872
#	142230
#	161337
#	181332
#	201002
#	217325
#
# Disc length: 3263 seconds
#
# Revision: 3
# Processed by: cddbd v1.5.2PL0 Copyright (c) Steve Scherf et al.
# Submitted via: jetAudio 7
#
DISCID=ad0cbd0c
DTITLE=渚のオールスターズ - Nagisa no Cassette Vol.1
DYEAR=1987
DGENRE=Pop
TTITLE0=サマー・ドリーム
TTITLE1=ボーイズ・オン・ザ・ビーチ
TTITLE2=ステキなサタデーナイト
TTITLE3=Stay In My Eyes
TTITLE4=SA.YO.NA.RA
TTITLE5=My Seet Milky Baby
TTITLE6=Seaside Rock'n Roll
TTITLE7=ダンス・ウィズ・ユー
TTITLE8=Why Did You Go Away
TTITLE9=Stay Forever
TTITLE10=渚のMerry Boys
TTITLE11=サンディー
EXTD=YEAR: 1987
EXTT0=
EXTT1=
EXTT2=
EXTT3=
EXTT4=
EXTT5=
EXTT6=
EXTT7=
EXTT8=
EXTT9=
EXTT10=
EXTT11=
PLAYORDER=
